<?xml version="1.0" encoding="utf-8"?>
<!-- Generator: Adobe Illustrator 19.0.0, SVG Export Plug-In . SVG Version: 6.00 Build 0)  -->
<svg version="1.1" id="Warstwa_1" xmlns="http://www.w3.org/2000/svg" xmlns:xlink="http://www.w3.org/1999/xlink" x="0px" y="0px"
	 viewBox="-297 390 16 14" style="enable-background:new -297 390 16 14;" xml:space="preserve">
<style type="text/css">
	.st0{fill:#61DDFE;}
</style>
<path id="Path_41" class="st0" d="M-283,404h-12c-1.1,0-2-0.9-2-2v-10c0-1.1,0.9-2,2-2h12c1.1,0,2,0.9,2,2v10
	C-281,403.1-281.9,404-283,404z M-295,391c-0.6,0-1,0.4-1,1v10c0,0.6,0.4,1,1,1h12c0.6,0,1-0.4,1-1v-10c0-0.6-0.4-1-1-1H-295z"/>
<path id="Path_40" class="st0" d="M-289,398c-0.1,0-0.2,0-0.2-0.1l-7.5-4c-0.2-0.1-0.3-0.4-0.2-0.7c0.1-0.2,0.4-0.3,0.7-0.2l7.3,3.9
	l7.3-3.9c0.2-0.1,0.5,0,0.7,0.2c0.1,0.2,0,0.5-0.2,0.7c0,0,0,0,0,0l-7.5,4C-288.8,398-288.9,398-289,398z"/>
</svg>
