<?xml version="1.0" encoding="utf-8"?>
<!-- Generator: Adobe Illustrator 19.0.0, SVG Export Plug-In . SVG Version: 6.00 Build 0)  -->
<svg version="1.1" id="Warstwa_1" xmlns="http://www.w3.org/2000/svg" xmlns:xlink="http://www.w3.org/1999/xlink" x="0px" y="0px"
	 viewBox="-294 385.5 22.5 22.5" style="enable-background:new -294 385.5 22.5 22.5;" xml:space="preserve">
<style type="text/css">
	.st0{fill:#FF7D44;}
</style>
<path id="Path_43" class="st0" d="M-282.8,387.5c3,0,3.4,0,4.5,0.1c0.7,0,1.4,0.1,2.1,0.4c0.5,0.2,0.9,0.5,1.3,0.8
	c0.4,0.4,0.7,0.8,0.8,1.3c0.2,0.7,0.4,1.4,0.4,2.1c0.1,1.2,0.1,1.5,0.1,4.5s0,3.4-0.1,4.6c0,0.7-0.1,1.4-0.4,2.1
	c-0.4,1-1.2,1.8-2.1,2.1c-0.7,0.2-1.4,0.4-2.1,0.4c-1.2,0.1-1.5,0.1-4.5,0.1s-3.4,0-4.6-0.1c-0.7,0-1.4-0.1-2.1-0.4
	c-0.5-0.2-0.9-0.5-1.3-0.8c-0.4-0.4-0.7-0.8-0.8-1.3c-0.2-0.7-0.4-1.4-0.4-2.1c-0.1-1.2-0.1-1.5-0.1-4.5s0-3.4,0.1-4.6
	c0-0.7,0.1-1.4,0.4-2.1c0.2-0.5,0.5-0.9,0.8-1.3c0.4-0.4,0.8-0.7,1.3-0.8c0.7-0.2,1.4-0.4,2.1-0.4
	C-286.1,387.5-285.8,387.5-282.8,387.5 M-282.8,385.5c-3.1,0-3.4,0-4.6,0.1c-0.9,0-1.9,0.2-2.7,0.5c-0.8,0.3-1.4,0.7-2,1.3
	c-0.6,0.6-1,1.2-1.3,2c-0.3,0.9-0.5,1.8-0.5,2.7c-0.1,1.2-0.1,1.6-0.1,4.6s0,3.4,0.1,4.6c0,0.9,0.2,1.9,0.5,2.7
	c0.3,0.8,0.7,1.4,1.3,2c0.6,0.6,1.2,1,2,1.3c0.9,0.3,1.8,0.5,2.7,0.5c1.2,0.1,1.6,0.1,4.6,0.1c3.1,0,3.4,0,4.6-0.1
	c0.9,0,1.9-0.2,2.7-0.5c1.5-0.6,2.7-1.8,3.3-3.3c0.3-0.9,0.5-1.8,0.5-2.7c0.1-1.2,0.1-1.6,0.1-4.6s0-3.4-0.1-4.6
	c0-0.9-0.2-1.9-0.5-2.7c-0.3-0.8-0.7-1.4-1.3-2c-0.6-0.6-1.2-1-2-1.3c-0.9-0.3-1.8-0.5-2.7-0.5
	C-279.3,385.5-279.8,385.5-282.8,385.5L-282.8,385.5z"/>
<path id="Path_43_1_" class="st0" d="M-282.8,387.5c3,0,3.4,0,4.5,0.1c0.7,0,1.4,0.1,2.1,0.4c0.5,0.2,0.9,0.5,1.3,0.8
	c0.4,0.4,0.7,0.8,0.8,1.3c0.2,0.7,0.4,1.4,0.4,2.1c0.1,1.2,0.1,1.5,0.1,4.5s0,3.4-0.1,4.6c0,0.7-0.1,1.4-0.4,2.1
	c-0.4,1-1.2,1.8-2.1,2.1c-0.7,0.2-1.4,0.4-2.1,0.4c-1.2,0.1-1.5,0.1-4.5,0.1s-3.4,0-4.6-0.1c-0.7,0-1.4-0.1-2.1-0.4
	c-0.5-0.2-0.9-0.5-1.3-0.8c-0.4-0.4-0.7-0.8-0.8-1.3c-0.2-0.7-0.4-1.4-0.4-2.1c-0.1-1.2-0.1-1.5-0.1-4.5s0-3.4,0.1-4.6
	c0-0.7,0.1-1.4,0.4-2.1c0.2-0.5,0.5-0.9,0.8-1.3c0.4-0.4,0.8-0.7,1.3-0.8c0.7-0.2,1.4-0.4,2.1-0.4
	C-286.1,387.5-285.8,387.5-282.8,387.5 M-282.8,385.5c-3.1,0-3.4,0-4.6,0.1c-0.9,0-1.9,0.2-2.7,0.5c-0.8,0.3-1.4,0.7-2,1.3
	c-0.6,0.6-1,1.2-1.3,2c-0.3,0.9-0.5,1.8-0.5,2.7c-0.1,1.2-0.1,1.6-0.1,4.6s0,3.4,0.1,4.6c0,0.9,0.2,1.9,0.5,2.7
	c0.3,0.8,0.7,1.4,1.3,2c0.6,0.6,1.2,1,2,1.3c0.9,0.3,1.8,0.5,2.7,0.5c1.2,0.1,1.6,0.1,4.6,0.1c3.1,0,3.4,0,4.6-0.1
	c0.9,0,1.9-0.2,2.7-0.5c1.5-0.6,2.7-1.8,3.3-3.3c0.3-0.9,0.5-1.8,0.5-2.7c0.1-1.2,0.1-1.6,0.1-4.6s0-3.4-0.1-4.6
	c0-0.9-0.2-1.9-0.5-2.7c-0.3-0.8-0.7-1.4-1.3-2c-0.6-0.6-1.2-1-2-1.3c-0.9-0.3-1.8-0.5-2.7-0.5
	C-279.3,385.5-279.8,385.5-282.8,385.5L-282.8,385.5z"/>
<path id="Path_44" class="st0" d="M-282.8,391.5c-3.2,0-5.8,2.6-5.8,5.8c0,3.2,2.6,5.8,5.8,5.8c3.2,0,5.8-2.6,5.8-5.8l0,0
	C-277,394.1-279.5,391.5-282.8,391.5z M-282.8,401c-2.1,0-3.8-1.7-3.8-3.8s1.7-3.8,3.8-3.8s3.8,1.7,3.8,3.8S-280.8,401-282.8,401
	L-282.8,401z"/>
<circle id="Ellipse_6" class="st0" cx="-276.6" cy="390.8" r="1.4"/>
</svg>
