<?xml version="1.0" encoding="utf-8"?>
<!-- Generator: Adobe Illustrator 19.0.0, SVG Export Plug-In . SVG Version: 6.00 Build 0)  -->
<svg version="1.1" id="Warstwa_1" xmlns="http://www.w3.org/2000/svg" xmlns:xlink="http://www.w3.org/1999/xlink" x="0px" y="0px"
	 viewBox="-300 388 15 16" style="enable-background:new -300 388 15 16;" xml:space="preserve">
<style type="text/css">
	.st0{fill:#61DDFE;}
</style>
<path id="Path_40" class="st0" d="M-290.5,404h-8c-0.8,0-1.5-0.7-1.5-1.5l0,0v-12c0-0.8,0.7-1.5,1.5-1.5h2c0.3,0,0.5,0.2,0.5,0.5
	s-0.2,0.5-0.5,0.5h-2c-0.3,0-0.5,0.2-0.5,0.5v12c0,0.3,0.2,0.5,0.5,0.5h8c0.3,0,0.5-0.2,0.5-0.5v-6c0-0.3,0.2-0.5,0.5-0.5
	s0.5,0.2,0.5,0.5v6C-289,403.3-289.7,404-290.5,404L-290.5,404z"/>
<path id="Path_41" class="st0" d="M-294.5,397c-0.3,0-0.5-0.2-0.5-0.5v-7c0-0.8,0.7-1.5,1.5-1.5h7c0.8,0,1.5,0.7,1.5,1.5v4
	c0,0.8-0.7,1.5-1.5,1.5h-4.8l-2.9,1.9C-294.3,397-294.4,397-294.5,397z M-293.5,389c-0.3,0-0.5,0.2-0.5,0.5v6.1l2.2-1.5
	c0.1-0.1,0.2-0.1,0.3-0.1h5c0.3,0,0.5-0.2,0.5-0.5v-4c0-0.3-0.2-0.5-0.5-0.5H-293.5z"/>
</svg>
