<?xml version="1.0" encoding="utf-8"?>
<!-- Generator: Adobe Illustrator 19.0.0, SVG Export Plug-In . SVG Version: 6.00 Build 0)  -->
<svg version="1.1" id="Warstwa_1" xmlns="http://www.w3.org/2000/svg" xmlns:xlink="http://www.w3.org/1999/xlink" x="0px" y="0px"
	 viewBox="-297 390 16 13" style="enable-background:new -297 390 16 13;" xml:space="preserve">
<style type="text/css">
	.st0{fill:#FF7D44;}
</style>
<path id="Path_57" class="st0" d="M-282.5,403h-13c-0.8,0-1.5-0.7-1.5-1.5v-10c0-0.8,0.7-1.5,1.5-1.5h13c0.8,0,1.5,0.7,1.5,1.5v10
	C-281,402.3-281.7,403-282.5,403z M-295.5,391c-0.3,0-0.5,0.2-0.5,0.5v10c0,0.3,0.2,0.5,0.5,0.5h13c0.3,0,0.5-0.2,0.5-0.5v-10
	c0-0.3-0.2-0.5-0.5-0.5H-295.5z"/>
<path id="Path_58" class="st0" d="M-289,398.5c-0.1,0-0.2,0-0.3-0.1l-5.5-4.5c-0.2-0.2-0.2-0.5-0.1-0.7c0.2-0.2,0.5-0.2,0.7-0.1
	l5.2,4.2l5.2-4.2c0.2-0.2,0.5-0.2,0.7,0.1s0.2,0.5-0.1,0.7c0,0,0,0,0,0l-5.5,4.5C-288.8,398.5-288.9,398.5-289,398.5z"/>
<path id="Line_1" class="st0" d="M-294.5,400c-0.1,0-0.3-0.1-0.4-0.1c-0.2-0.2-0.2-0.5,0-0.7l1.5-1.5c0.2-0.2,0.5-0.2,0.7,0
	c0.2,0.2,0.2,0.5,0,0.7l-1.5,1.5C-294.2,399.9-294.4,400-294.5,400z"/>
<path id="Line_2" class="st0" d="M-283.5,400c-0.1,0-0.3-0.1-0.4-0.1l-1.5-1.5c-0.2-0.2-0.2-0.5,0-0.7c0.2-0.2,0.5-0.2,0.7,0
	l1.5,1.5c0.2,0.2,0.2,0.5,0,0.7C-283.2,399.9-283.4,400-283.5,400z"/>
</svg>
